<?xml version="1.0" encoding="UTF-8" standalone="no"?>
<!-- Created with Inkscape (http://www.inkscape.org/) -->

<svg
   xmlns:dc="http://purl.org/dc/elements/1.1/"
   xmlns:cc="http://creativecommons.org/ns#"
   xmlns:rdf="http://www.w3.org/1999/02/22-rdf-syntax-ns#"
   xmlns:svg="http://www.w3.org/2000/svg"
   xmlns="http://www.w3.org/2000/svg"
   xmlns:sodipodi="http://sodipodi.sourceforge.net/DTD/sodipodi-0.dtd"
   xmlns:inkscape="http://www.inkscape.org/namespaces/inkscape"
   width="210mm"
   height="297mm"
   viewBox="0 0 210 297"
   version="1.1"
   id="svg291"
   sodipodi:docname="alexSig.svg"
   inkscape:version="0.92.3 (2405546, 2018-03-11)">
  <defs
     id="defs285" />
  <sodipodi:namedview
     id="base"
     pagecolor="#ffffff"
     bordercolor="#666666"
     borderopacity="1.0"
     inkscape:pageopacity="0.0"
     inkscape:pageshadow="2"
     inkscape:zoom="0.7"
     inkscape:cx="1260.9852"
     inkscape:cy="593.35931"
     inkscape:document-units="mm"
     inkscape:current-layer="layer4"
     showgrid="false"
     inkscape:window-width="1867"
     inkscape:window-height="1025"
     inkscape:window-x="1973"
     inkscape:window-y="27"
     inkscape:window-maximized="1" />
  <metadata
     id="metadata288">
    <rdf:RDF>
      <cc:Work
         rdf:about="">
        <dc:format>image/svg+xml</dc:format>
        <dc:type
           rdf:resource="http://purl.org/dc/dcmitype/StillImage" />
        <dc:title></dc:title>
      </cc:Work>
    </rdf:RDF>
  </metadata>
  <g
     inkscape:label="Layer 1"
     inkscape:groupmode="layer"
     id="layer1" />
  <g
     inkscape:groupmode="layer"
     id="layer4"
     inkscape:label="Layer 2">
    <path
       style="fill:none;stroke:#000000;stroke-width:0.26458332px;stroke-linecap:butt;stroke-linejoin:miter;stroke-opacity:1"
       d="M 148.54464,124.26488 C 123.15739,132.5443 92.496462,150.72442 49.892857,199.48214 90.25433,138.75552 93.943319,70.898149 99.02976,3.3124997 104.04069,66.880043 105.70193,129.50968 134.93749,199.86012 107.35258,178.3118 83.41824,138.30725 44.60119,122.375 c 33.345027,6.35296 69.59208,8.61944 103.94345,1.88988 17.53996,-1.54188 22.8029,-2.95456 31.75,-8.31548 9.85519,-7.60558 20.59359,-10.80107 23.43452,-20.410712 12.25825,-21.436276 7.98017,-23.970515 10.20536,-31.372023 -0.71573,-10.626219 -1.47067,-21.272039 -4.15774,-32.883928 -1.5119,-10.331349 -6.55158,-19.654761 -15.11904,-27.9702373 -4.71583,-1.45778 -8.06502,-4.28221139 -18.52084,0 -5.83241,2.4016998 -10.23236,5.6249786 -13.98512,13.9851193 -3.50745,8.868215 -7.82609,18.095995 -8.31547,27.970236 -1.19965,6.737853 0.31917,14.304286 1.13393,23.056549 1.93057,11.761864 4.62776,21.990511 7.55952,31.749996 l 9.82738,28.34822 c 4.42503,13.36961 7.98769,27.95658 13.22917,39.6875 6.69698,13.3259 9.73878,19.29874 18.89881,26.08036 5.64468,10.46663 30.79854,8.59969 40.06547,6.04761 12.84889,-2.56545 22.75011,-4.86293 24.56845,-6.4256 l 27.59226,-14.74107 c 8.36439,-5.11552 15.04257,-10.51208 17.38692,-16.63094 6.04256,-7.55953 6.71507,-15.11905 6.80355,-22.67858 l -1.88986,-25.70238 c 0.23032,-4.58493 -1.02299,-9.66441 -6.80358,-16.252975 -1.01049,-3.185433 -1.257,-6.480008 -9.07143,-8.693451 -5.00452,-0.518595 -9.568,-2.801375 -15.49701,0.377976 -6.47334,1.511905 -8.33443,3.02381 -10.96132,4.535715 -10.10059,8.218385 -11.40612,11.003145 -14.36311,15.874995 -4.60556,7.43353 -5.70723,14.86707 -5.29165,22.3006 -0.95906,7.62723 0.21548,14.54325 2.26785,21.16667 1.04156,8.12691 4.35769,13.10309 6.04762,15.11904 1.7907,8.05679 8.83604,14.79992 14.36311,21.92262 5.92596,7.42053 14.05882,8.22036 21.92261,9.82738 9.07142,2.33353 18.14285,2.56711 27.21427,-1.13393 5.29167,-3.07595 12.85119,-4.61652 18.14286,-12.47321 12.85446,-9.20947 15.90086,-16.91054 18.14286,-24.19047 5.67054,-9.07143 7.65844,-18.14286 8.31549,-27.21429 1.68948,-17.82145 4.11119,-25.81716 6.80357,-27.59226 3.1498,-6.90361 6.29959,-6.29856 9.44939,-8.693454 5.90741,-0.321607 21.21341,-2.727641 23.43452,3.401784 3.26224,-1.46354 11.62521,8.49869 11.33931,12.47321 5.98741,8.85141 5.30964,17.85187 5.29166,25.70238 0.19666,10.87531 0.18267,21.24865 3.40179,23.05656 3.38118,5.47944 5.52754,12.77347 9.82736,15.49702 5.22058,9.69763 14.44681,16.4982 25.7024,21.16666"
       id="path448"
       inkscape:connector-curvature="0"
       sodipodi:nodetypes="ccccccccccccccccccccccccccccccccccccccccccccccc" />
    <path
       style="fill:none;stroke:#000000;stroke-width:0.26458332px;stroke-linecap:butt;stroke-linejoin:miter;stroke-opacity:1"
       d="m 467.55655,104.23214 c -78.99704,97.13988 -78.61905,96.7619 -78.61905,96.7619 -7.18155,8.38393 -14.3631,12.87151 -21.54464,16.25298 -9.52629,4.55706 -20.49337,8.19355 -30.99407,9.82738 -18.09462,2.62276 -38.99924,6.20336 -52.53868,6.04762 0,0 -27.2159,-0.85504 -30.23809,-0.75595 l -46.1131,1.5119 -52.16071,-2.64583 -65.767854,-1.13393 -36.66369,-0.37797"
       id="path450"
       inkscape:connector-curvature="0"
       sodipodi:nodetypes="cccccscccc" />
    <path
       sodipodi:type="star"
       style="fill:#aa0000;stroke-width:0.26458332"
       id="path452"
       sodipodi:sides="5"
       sodipodi:cx="48.053959"
       sodipodi:cy="228.81476"
       sodipodi:r1="9.8925848"
       sodipodi:r2="4.9462924"
       sodipodi:arg1="0.8124188"
       sodipodi:arg2="1.4407373"
       inkscape:flatsided="false"
       inkscape:rounded="0"
       inkscape:randomized="0"
       d="m 54.85753,235.99631 -6.162073,-2.27703 -5.369139,3.78528 0.261402,-6.56412 -5.259175,-3.93664 6.323628,-1.77982 2.11879,-6.21826 3.646816,5.46414 6.568659,0.0935 -4.069772,5.15684 z"
       inkscape:transform-center-x="0.39646797"
       inkscape:transform-center-y="-0.55961932" />
  </g>
</svg>
