<?xml version="1.0" encoding="UTF-8" standalone="no"?>
<!-- Created with Inkscape (http://www.inkscape.org/) -->

<svg
   xmlns:dc="http://purl.org/dc/elements/1.1/"
   xmlns:cc="http://creativecommons.org/ns#"
   xmlns:rdf="http://www.w3.org/1999/02/22-rdf-syntax-ns#"
   xmlns:svg="http://www.w3.org/2000/svg"
   xmlns="http://www.w3.org/2000/svg"
   xmlns:sodipodi="http://sodipodi.sourceforge.net/DTD/sodipodi-0.dtd"
   xmlns:inkscape="http://www.inkscape.org/namespaces/inkscape"
   width="210mm"
   height="297mm"
   viewBox="0 0 210 297"
   version="1.1"
   id="svg8"
   inkscape:version="0.92.3 (2405546, 2018-03-11)"
   sodipodi:docname="votrtySig.svg">
  <defs
     id="defs2" />
  <sodipodi:namedview
     id="base"
     pagecolor="#ffffff"
     bordercolor="#666666"
     borderopacity="1.0"
     inkscape:pageopacity="0.0"
     inkscape:pageshadow="2"
     inkscape:zoom="0.7"
     inkscape:cx="155.47268"
     inkscape:cy="567.02865"
     inkscape:document-units="mm"
     inkscape:current-layer="layer1"
     showgrid="false"
     inkscape:window-width="1867"
     inkscape:window-height="1025"
     inkscape:window-x="1973"
     inkscape:window-y="27"
     inkscape:window-maximized="1" />
  <metadata
     id="metadata5">
    <rdf:RDF>
      <cc:Work
         rdf:about="">
        <dc:format>image/svg+xml</dc:format>
        <dc:type
           rdf:resource="http://purl.org/dc/dcmitype/StillImage" />
        <dc:title></dc:title>
      </cc:Work>
    </rdf:RDF>
  </metadata>
  <g
     inkscape:label="Layer 1"
     inkscape:groupmode="layer"
     id="layer1">
    <path
       style="fill:none;stroke:#000000;stroke-width:0.26458332px;stroke-linecap:butt;stroke-linejoin:miter;stroke-opacity:1"
       d="M 0.37797618,-0.08928587 C 45.387323,106.69834 42.33493,201.70048 42.333333,201.75 54.352227,123.20664 51.541734,54.985367 92.226194,12.005952 103.43949,1.9147183 114.65278,3.4197736 125.86607,2.9345236"
       id="path10"
       inkscape:connector-curvature="0"
       sodipodi:nodetypes="cccc" />
    <path
       style="fill:none;stroke:#000000;stroke-width:0.26458332px;stroke-linecap:butt;stroke-linejoin:miter;stroke-opacity:1"
       d="m 125.11012,119.72916 c 30.9985,7.48524 29.3764,25.12008 29.86012,34.77381 2.43327,23.91929 -8.4107,37.04813 -35.15179,40.82143 -25.46118,0.41991 -39.291184,-13.02812 -38.553569,-43.84524 3.130272,-33.80493 24.548679,-31.03359 43.089289,-34.01785 l 182.18451,1.13393"
       id="path31"
       inkscape:connector-curvature="0"
       sodipodi:nodetypes="cccccc" />
    <path
       style="fill:none;stroke:#000000;stroke-width:0.26458332px;stroke-linecap:butt;stroke-linejoin:miter;stroke-opacity:1"
       d="m 182.18452,33.928571 c -3.02381,132.291669 -3.02381,131.535709 -3.02381,131.535709 3.16056,19.31672 8.95817,17.537 13.98512,21.92262 5.82337,2.12916 11.70806,3.95178 18.52083,1.13393 14.14833,-5.16567 11.62659,-10.33135 15.875,-15.49702 l 1.13393,-47.625 c 10.3283,13.56394 22.05911,18.01161 34.39583,18.52083 v 27.97024 c 1.48539,9.76104 4.40625,9.47376 6.80358,12.85119 7.77952,4.41533 10.7591,2.11074 13.60715,-0.37798 5.50717,-2.28245 6.64475,-6.31273 7.18153,-10.58333 l 0,-27.21428 0.37799,-15.49703 c 4.28373,-3.9039 8.56746,-10.74294 12.85119,0.75595 l 0.75595,41.95536 c 2.14186,7.61443 4.28373,6.39635 6.42559,9.4494 4.81138,1.62178 9.35646,4.84136 15.11904,0.75596 3.6292,-2.16644 7.05001,-4.54127 8.69346,-8.69346 l 0.75595,-48.00297 -0.37796,70.30357 c -2.89781,7.55251 -2.73203,12.75894 -12.47323,20.03273 -11.29096,10.77966 -17.81312,7.41133 -23.43451,9.07144 L 27.59226,226.31845"
       id="path33"
       inkscape:connector-curvature="0"
       sodipodi:nodetypes="ccccccccccccccccccccccc" />
  </g>
</svg>
